<svg xmlns="http://www.w3.org/2000/svg" width="353.519" height="314.004" viewBox="0 0 353.519 314.004"><path id="apreton-de-manos-de-pareja-de-corazon" d="M353.519,100.969c0,20.908-7.409,43.744-22.007,67.879a7.515,7.515,0,0,1-10.09,2.542,7.033,7.033,0,0,1-2.637-9.768c13.257-21.922,19.989-42.316,19.989-60.653,0-44.843-38.607-85.688-81.015-85.688-34.674,0-52.424,13.239-68.98,27.977l-63.206,60.667c-8.676,8.412-10.3,21.436-3.727,30.276a23.479,23.479,0,0,0,17.264,9.54,24,24,0,0,0,18.471-6.569l65.548-62.7a7.521,7.521,0,0,1,10.414.071,6.993,6.993,0,0,1-.059,10.1l-21.152,20.237,78.319,66.651c14.2,12.068,17.764,32.233,8.293,46.914a37.685,37.685,0,0,1-36.516,16.723,34.1,34.1,0,0,1-4.448,25.835,37.311,37.311,0,0,1-26.16,16.666,37.78,37.78,0,0,1-15.054-.871,33.7,33.7,0,0,1-5.185,21.151,37.3,37.3,0,0,1-26.146,16.666,38.389,38.389,0,0,1-5.406.386,37.671,37.671,0,0,1-24.437-8.926l-47.74-41.53C35.278,200.953,0,147.455,0,100.969,0,47.714,44.75,1,95.745,1c17.087,0,34.159,5.37,49.4,15.538a7,7,0,0,1,1.9,9.926,7.477,7.477,0,0,1-10.237,1.842C124.041,19.78,109.841,15.281,95.76,15.281c-42.393,0-81.015,40.845-81.015,85.688,0,41.63,34.645,93.1,102.977,152.968L165.373,295.4a22.816,22.816,0,0,0,17.941,5.1,22.245,22.245,0,0,0,15.805-10.111c5.686-8.8,3.314-21.108-5.524-28.62l-49.139-45.286a6.978,6.978,0,0,1-.265-10.083,7.519,7.519,0,0,1,10.4-.286l57.314,52.455a22.542,22.542,0,0,0,17.794,4.984,22.3,22.3,0,0,0,15.82-10.111c5.671-8.783,3.3-21.094-5.538-28.606L185.259,176.8a7,7,0,0,1-.545-10.068,7.521,7.521,0,0,1,10.385-.571l57.609,49.713a22.838,22.838,0,0,0,17.971,5.113,22.318,22.318,0,0,0,15.805-10.111c5.671-8.8,3.3-21.108-5.538-28.606L201.83,114.937,167.98,147.312a38.94,38.94,0,0,1-58.065-4.756c-10.738-14.453-8.47-35.4,5.288-48.742L178.63,32.947c18.236-16.252,39.2-31.933,79.144-31.933,51.01,0,95.745,46.714,95.745,99.969Z" transform="translate(0 -1)" fill="#6f3f29"></path></svg>