<svg xmlns="http://www.w3.org/2000/svg" width="240.67" height="321.212" viewBox="0 0 240.67 321.212"><path id="auriculares-de-usuario" d="M242.5,103.23C235.114,50.006,190.936,6.953,137.445.823A120.481,120.481,0,0,0,3.027,113.374a6.689,6.689,0,0,0,13.356.776A107.072,107.072,0,0,1,135.919,14.126c47.509,5.433,86.762,43.682,93.333,90.937A108.535,108.535,0,0,1,223,159.438c-6.531,16.7-23.768,27.93-42.892,27.93H146.425a26.757,26.757,0,1,0-23.166,13.383H180.11c24.571,0,46.827-14.641,55.365-36.428A121.961,121.961,0,0,0,242.5,103.23ZM109.876,173.985a13.383,13.383,0,1,1,13.383,13.383A13.4,13.4,0,0,1,109.876,173.985Zm73-23.126a66.23,66.23,0,0,0,7.294-30.406A66.915,66.915,0,1,0,71.641,163.038a6.688,6.688,0,1,1-10.318,8.512,80.3,80.3,0,1,1,142.234-51.1,79.46,79.46,0,0,1-8.752,36.509,6.694,6.694,0,1,1-11.924-6.089Zm47.3,162.282a6.69,6.69,0,1,1-13.1,2.717c-9.047-43.441-48.5-74.971-93.828-74.971S38.465,272.4,29.431,315.858a6.689,6.689,0,0,1-6.544,5.326,5.923,5.923,0,0,1-1.365-.147,6.68,6.68,0,0,1-5.193-7.909C26.648,263.5,71.614,227.5,123.259,227.5s96.6,36,106.916,85.624Z" transform="translate(-3.015 0)" fill="#6f3f29"></path></svg>