<svg xmlns="http://www.w3.org/2000/svg" width="300" height="300.049" viewBox="0 0 300 300.049"><path id="corazon-de-mano" d="M289.8,120.7a31.779,31.779,0,0,0-22.615-8.151,31.2,31.2,0,0,0-21.74,10.226l-46.656,51.281A33.089,33.089,0,0,0,167,150.031H43.755A43.8,43.8,0,0,0,0,193.786v62.508a43.8,43.8,0,0,0,43.755,43.755h74.572A118.847,118.847,0,0,0,207,260.282l85.085-95.5A31.492,31.492,0,0,0,289.8,120.7Zm-7.038,35.767-85.085,95.5a106.351,106.351,0,0,1-79.347,35.579H43.755A31.289,31.289,0,0,1,12.5,256.294V193.786a31.289,31.289,0,0,1,31.254-31.254H166.983a20.529,20.529,0,0,1,3.063,40.83l-77.022,9.214a6.251,6.251,0,0,0,1.488,12.414l77.172-9.239a33.228,33.228,0,0,0,26.816-22.8l56.207-61.758a18.764,18.764,0,0,1,13.077-6.151,18.893,18.893,0,0,1,14.977,31.441ZM123.74,108.926a21.981,21.981,0,0,0,27.578,0c16.865-13.452,48.719-45.843,48.719-72.3,0-20.2-15.414-36.63-34.379-36.63-12.026,0-22.065,5.188-28.128,13.627C131.466,5.188,121.427,0,109.4,0,90.436,0,75.022,16.427,75.022,36.63c0,26.441,31.866,58.845,48.718,72.284ZM109.4,12.514c12.877,0,21.878,8.789,21.878,21.365a6.251,6.251,0,0,0,12.5,0c0-12.577,9-21.365,21.878-21.365,12.064,0,21.878,10.826,21.878,24.128,0,18.9-25.741,47.931-44.018,62.52a9.571,9.571,0,0,1-11.989,0C113.251,84.585,87.511,55.557,87.511,36.655c0-13.3,9.814-24.128,21.878-24.128Z" fill="#6f3f29"></path></svg>