<svg xmlns="http://www.w3.org/2000/svg" xmlns:xlink="http://www.w3.org/1999/xlink" id="Group_59" data-name="Group 59" width="227.341" height="224.025" viewBox="0 0 227.341 224.025"><defs><clipPath id="clip-path"><rect id="Rectangle_3" data-name="Rectangle 3" width="227.341" height="224.025" fill="#fff"></rect></clipPath></defs><g id="Group_1" data-name="Group 1" clip-path="url(#clip-path)"><path id="Path_1" data-name="Path 1" d="M93.241,50.841h0c-6.652.324-14.842.324-23.191-.059-.86-.039-1.715-.085-2.57-.133l-.993-.054v.994c0,3.56,0,3.56.658,3.723,3.46,1.093,7.164,2.684,8.4,6.184a20.6,20.6,0,0,1,.725,7.058l-.155,13.528c-.033,3.619-.065,7.036-1.631,10.169l-.029.063a23.814,23.814,0,0,1-4.708,7.353,21.8,21.8,0,0,1-7.155,4.977,22.544,22.544,0,0,1-9.113,1.831,29.588,29.588,0,0,1-15.454-3.984,35.712,35.712,0,0,1-11.227-10.7,51.068,51.068,0,0,1-6.915-15.415,68.566,68.566,0,0,1-2.356-17.9A83.1,83.1,0,0,1,20,37.989c2.4-9.442,6.761-16.847,12.978-22.028a28.942,28.942,0,0,1,6.749-4.635A31.553,31.553,0,0,1,53.35,8.55a25.235,25.235,0,0,1,10.36,2.006,24.264,24.264,0,0,1,7.816,5.574,33.025,33.025,0,0,1,5.686,8.533,63.824,63.824,0,0,1,3.882,10.765l.151.567,2.635.526,5.171-19.395-.536-.378A59.746,59.746,0,0,0,71.048,8.2a66.943,66.943,0,0,0-19-2.724h-.006A56.8,56.8,0,0,0,30.915,9.3a48.969,48.969,0,0,0-16.49,10.653A47.314,47.314,0,0,0,3.766,36.337,56.462,56.462,0,0,0,0,57.158a56.4,56.4,0,0,0,4.012,21.61,48.5,48.5,0,0,0,27.506,27.2,54.471,54.471,0,0,0,20.159,3.707h.006a38.46,38.46,0,0,0,8.324-.8,37.484,37.484,0,0,0,6.552-2.082,49.371,49.371,0,0,0,5.659-2.861c1.715-1.013,3.583-2.027,5.553-3.013,1.942-.971,4.123-1.923,6.482-2.829a44.407,44.407,0,0,1,8.3-2.16l.782-.133,0-31.221c.075-3.941.687-6.828,1.82-8.581,1.042-1.616,3.326-2.435,6.789-2.435h.941V50.3l-1,.065c-2.435.159-5.262.315-8.64.478" transform="translate(0 -1.581)" fill="#fff"></path><path id="Path_2" data-name="Path 2" d="M224.581,44.928A40.424,40.424,0,0,0,211.052,35.8a45.928,45.928,0,0,0-17.818-3.314,46.774,46.774,0,0,0-17.745,3.25,39.92,39.92,0,0,0-13.6,9,40.459,40.459,0,0,0-8.679,13.466,44.852,44.852,0,0,0-3.058,16.616A49.276,49.276,0,0,0,153.144,92.1a42.215,42.215,0,0,0,8.546,14.025,39.843,39.843,0,0,0,13.47,9.45,44.11,44.11,0,0,0,17.7,3.445A46.818,46.818,0,0,0,210.8,115.71a40.751,40.751,0,0,0,13.717-9.128A39.377,39.377,0,0,0,233.2,92.788a48.79,48.79,0,0,0,2.99-17.223A47.436,47.436,0,0,0,233.2,58.587a40.135,40.135,0,0,0-8.619-13.659m-46.614,63.806a27.536,27.536,0,0,1-4.63-7.337A53.969,53.969,0,0,1,170.4,92.65a63.941,63.941,0,0,1-1.534-9.139c-.287-3.053-.432-5.935-.432-8.565h0c0-2.543.145-5.339.431-8.313a60.484,60.484,0,0,1,1.531-8.886,49.429,49.429,0,0,1,2.93-8.426,28.326,28.326,0,0,1,4.514-7.043,19.685,19.685,0,0,1,6.469-4.805,22.687,22.687,0,0,1,17.6,0,20.415,20.415,0,0,1,6.538,4.812,27.069,27.069,0,0,1,4.567,7.092,51.333,51.333,0,0,1,2.934,8.494,60.86,60.86,0,0,1,1.533,8.886c.286,3,.431,5.834.432,8.438a98.313,98.313,0,0,1-.986,13.132,48.192,48.192,0,0,1-3.721,13.245,28.466,28.466,0,0,1-7.524,10.117c-3.124,2.656-7.269,4-12.319,4h-.005a19.375,19.375,0,0,1-8.83-1.886,22.077,22.077,0,0,1-6.56-5.07" transform="translate(-43.359 -9.381)" fill="#fff"></path><path id="Path_3" data-name="Path 3" d="M272.5,9.078l-.866-.069V6.092l.853-.082c1.656-.156,3.5-.395,5.5-.708S282,4.592,284,4.122s4.015-1.01,5.972-1.6A42.707,42.707,0,0,0,295.233.6l1.33-.6.006,139.592a44.332,44.332,0,0,0-4-3.048,47.861,47.861,0,0,0-12.874-6.048c-.176-.05-.351-.107-.527-.15L279.16,23.9c0-2.435-.018-4.637-.056-6.55a15.6,15.6,0,0,0-.671-4.555,4.867,4.867,0,0,0-1.851-2.573A8.543,8.543,0,0,0,272.5,9.078" transform="translate(-78.438)" fill="#fff"></path><path id="Path_4" data-name="Path 4" d="M96.38,261.415a6.23,6.23,0,0,1-3.746-1.016,6.811,6.811,0,0,1-2.22-2.842v-.006a17.144,17.144,0,0,1-1.2-4.58,44.992,44.992,0,0,1-.371-5.985l-.006-104.792a37.328,37.328,0,0,0-3.927,1.23c-2.3.885-4.442,1.813-6.336,2.767-1.932.966-3.771,1.964-5.459,2.961a51.591,51.591,0,0,1-5.84,2.949,36.952,36.952,0,0,1-5.2,1.77v3.576l.916.087a10.859,10.859,0,0,1,4.079,1.029,4.742,4.742,0,0,1,2.064,2.114,10.03,10.03,0,0,1,.922,3.651c.126,1.543.188,3.382.188,5.471v30.09a38.973,38.973,0,0,0-2.314-5.365,35.993,35.993,0,0,0-7.685-10.038A32.4,32.4,0,0,0,50.23,178.3a31.238,31.238,0,0,0-11.268-2.108A41.064,41.064,0,0,0,22.224,179.4a32.763,32.763,0,0,0-12.109,9.154,40.326,40.326,0,0,0-7.328,14.191A64.113,64.113,0,0,0,.321,221.087a55.131,55.131,0,0,0,2.8,18.068,40.8,40.8,0,0,0,7.854,13.8,34.408,34.408,0,0,0,12.153,8.8,38.723,38.723,0,0,0,15.553,3.08h.012c.213.006.427.006.64.006a28.507,28.507,0,0,0,11.193-2.258,35.358,35.358,0,0,0,10.043-6.431,38,38,0,0,0,9.668-14.072v.821a30.977,30.977,0,0,0,1.531,10.49,14.831,14.831,0,0,0,4.863,6.832,20.254,20.254,0,0,0,8.181,3.563,55.385,55.385,0,0,0,11.57,1.048h1v-3.419Zm-26.52-31.4a32.264,32.264,0,0,1-2.742,10.741,35.913,35.913,0,0,1-4.592,8.312,32.3,32.3,0,0,1-6.556,6.619,30.057,30.057,0,0,1-8.087,4.323,25.561,25.561,0,0,1-9.172,1.412,14.5,14.5,0,0,1-9.26-2.974,21.875,21.875,0,0,1-6.218-8.363,48.321,48.321,0,0,1-3.494-12.874,114.358,114.358,0,0,1-1.072-16.123c-.007-4.536.231-9.354.7-14.324A53.784,53.784,0,0,1,22.3,193.237a26.444,26.444,0,0,1,6.261-9.957,14.384,14.384,0,0,1,10.4-3.8,27.484,27.484,0,0,1,8.984,1.537,29.171,29.171,0,0,1,8.263,4.505,31.108,31.108,0,0,1,6.731,7.29,38.179,38.179,0,0,1,4.681,10,25.74,25.74,0,0,1,1.166,4.3c.289,1.593.547,3.206.754,4.793.213,1.624.382,3.193.508,4.674.126,1.5.188,2.841.188,4,0,2.6-.125,5.772-.376,9.436" transform="translate(-0.093 -41.06)" fill="#fff"></path><path id="Path_5" data-name="Path 5" d="M176.116,272.7h0c-1.21-1.872-1.865-4.914-1.945-9.022l0-74.278-1.418.638a46.242,46.242,0,0,1-5.617,2.059c-2.084.625-4.232,1.2-6.384,1.708s-4.32.931-6.432,1.261c-2.139.336-4.115.591-5.871.758l-.91.086v3.118l.924.075a9.08,9.08,0,0,1,4.357,1.228,5.2,5.2,0,0,1,1.979,2.745,16.886,16.886,0,0,1,.715,4.87c.042,2.046.063,4.4.063,7l0,47.953c-.082,4.4-.7,7.652-1.845,9.664-1.036,1.821-3.468,2.745-7.228,2.745H145.5v3.353l1.068-.067c2.691-.169,5.47-.3,8.26-.383,6.9-.2,13.362-.143,19.339,0,3.452.084,6.486.212,9.016.38l1.073.072V275.3h-1.006c-3.616,0-6.014-.875-7.129-2.6" transform="translate(-42.014 -54.691)" fill="#fff"></path><path id="Path_6" data-name="Path 6" d="M167.7,176.209a9.571,9.571,0,0,0,7.449-3.271,11.05,11.05,0,0,0,2.87-7.558,11.779,11.779,0,0,0-2.72-7.724,10.122,10.122,0,0,0-14.993-.08,11.533,11.533,0,0,0-2.8,7.805,10.74,10.74,0,0,0,2.91,7.918,9.912,9.912,0,0,0,7.282,2.91" transform="translate(-45.482 -44.554)" fill="#fff"></path><path id="Path_7" data-name="Path 7" d="M224.286,228.647c2.483-.5,5.176-1,8-1.462,12.728-2.095,25.632-4.4,38.113-6.636l1.067-.191q3.247-.58,5.865-1.053l1.6-.288c2.121-.381,3.695-.656,4.711-.829l1.261-.216-.62-1.442a44.225,44.225,0,0,0-6.01-10.469,39.2,39.2,0,0,0-9.036-8.451,43.392,43.392,0,0,0-11.694-5.486,48.389,48.389,0,0,0-14-1.954,46.726,46.726,0,0,0-19.491,3.791,40.455,40.455,0,0,0-22.1,24.322,49.9,49.9,0,0,0,.259,32.556,42.888,42.888,0,0,0,8.363,14.237,41.576,41.576,0,0,0,13.661,10.066,44.406,44.406,0,0,0,18.925,3.8,47.018,47.018,0,0,0,17.468-3.075,45.858,45.858,0,0,0,13.559-8.276,27.011,27.011,0,0,0,9.212-18.366,23.431,23.431,0,0,0-.961-8.321l-.26-.864-3.366.63.345,1.084a20.482,20.482,0,0,1,.4,10.7,23.635,23.635,0,0,1-7.595,12.6,42.233,42.233,0,0,1-12.4,7.536,44.927,44.927,0,0,1-16.014,2.926,19.147,19.147,0,0,1-12.625-4.408,31.114,31.114,0,0,1-8.031-11.129,53.48,53.48,0,0,1-4.006-15.024,85.763,85.763,0,0,1-.548-15.164c1.718-.309,3.671-.686,5.939-1.147m35.637-27.459a30.048,30.048,0,0,1,4.689,8.026,56.573,56.573,0,0,1,2.607,8.45c-4.176.725-8.783,1.543-13.712,2.438-5.547,1-11.058,1.969-16.4,2.871-3.4.651-6.9,1.3-10.385,1.915q-4.335.768-8.233,1.437a73.032,73.032,0,0,1,1.73-10.614h0a39.666,39.666,0,0,1,4.354-11.012,24.936,24.936,0,0,1,7.475-8.038,19.894,19.894,0,0,1,11.37-3.078,21.057,21.057,0,0,1,9.56,2.056,21.749,21.749,0,0,1,6.948,5.549" transform="translate(-57.565 -54.914)" fill="#fff"></path></g></svg>