<svg xmlns="http://www.w3.org/2000/svg" width="300" height="299.995" viewBox="0 0 300 299.995"><path id="laser-de-piel" d="M125,100a25,25,0,1,0,25,25A25.025,25.025,0,0,0,125,100Zm0,37.5A12.5,12.5,0,1,1,137.5,125,12.512,12.512,0,0,1,125,137.5Zm125,81.248a6.25,6.25,0,1,1,12.5,0A43.8,43.8,0,0,1,218.751,262.5a6.25,6.25,0,1,1,0-12.5A31.285,31.285,0,0,0,250,218.747Zm50,0A81.342,81.342,0,0,1,218.751,300a6.25,6.25,0,1,1,0-12.5A68.829,68.829,0,0,0,287.5,218.747a6.25,6.25,0,1,1,12.5,0Zm-54.861-52.811c-2.875-4.012-6.425-8.887-10.337-14.1a33.569,33.569,0,0,0-7.475-37.224c-28.4-27.787-51.8-48.749-87.348-73.711-29.649-20.824-65.436-20.262-90.1.15L10.682,1.828a6.258,6.258,0,0,0-8.85,8.85L41.019,49.864c-20.424,24.649-21.1,62.261-.737,89.5,29.874,39.974,45.824,58.886,74.236,88a33.711,33.711,0,0,0,37.2,7.487c5.237,3.912,10.112,7.475,14.137,10.35a23.119,23.119,0,0,0,29.937-2.512L242.6,195.86a23.163,23.163,0,0,0,2.512-29.937ZM138.5,225a21.072,21.072,0,0,1-15.037-6.362c-27.949-28.649-43.686-47.3-73.173-86.748-17.662-23.624-16.637-56.611,2.362-76.736a54.9,54.9,0,0,1,40.474-17.2c13.25,0,27.1,4.362,39.661,13.187,34.849,24.474,57.848,45.074,85.785,72.411a21.089,21.089,0,0,1,6.412,15.062,20.846,20.846,0,0,1-6.15,14.975l-65.273,65.248a21.063,21.063,0,0,1-15.075,6.175Zm95.285-37.974-46.811,46.824a10.69,10.69,0,0,1-13.825,1.187c-3.05-2.175-6.662-4.825-10.475-7.637l64.673-64.648c2.812,3.8,5.45,7.412,7.625,10.45a10.7,10.7,0,0,1-1.187,13.825Z" transform="translate(0.001 0)" fill="#6f3f29"></path></svg>