<svg xmlns="http://www.w3.org/2000/svg" xmlns:xlink="http://www.w3.org/1999/xlink" width="127.451" height="125.592" viewBox="0 0 127.451 125.592"><defs><clipPath id="clip-path"><rect id="Rectangle_2272" data-name="Rectangle 2272" width="127.451" height="125.592" fill="#9f826d"></rect></clipPath></defs><g id="Group_60" data-name="Group 60" clip-path="url(#clip-path)"><path id="Path_8964" data-name="Path 8964" d="M52.273,30.908h0c-3.729.181-8.321.182-13-.033-.482-.022-.961-.048-1.441-.075l-.557-.03v.557c0,2,0,2,.369,2.087,1.94.613,4.016,1.5,4.707,3.467a11.547,11.547,0,0,1,.407,3.957l-.087,7.584a12.633,12.633,0,0,1-.914,5.7l-.016.035A13.35,13.35,0,0,1,39.1,58.28a12.223,12.223,0,0,1-4.011,2.79A12.638,12.638,0,0,1,29.979,62.1a16.588,16.588,0,0,1-8.664-2.233,20.021,20.021,0,0,1-6.294-6,28.63,28.63,0,0,1-3.876-8.642A38.439,38.439,0,0,1,9.823,35.184,46.585,46.585,0,0,1,11.212,23.7c1.347-5.294,3.79-9.445,7.276-12.35a16.225,16.225,0,0,1,3.784-2.6A17.689,17.689,0,0,1,29.909,7.2a14.147,14.147,0,0,1,5.808,1.125A13.6,13.6,0,0,1,40.1,11.448a18.515,18.515,0,0,1,3.188,4.784,35.781,35.781,0,0,1,2.176,6.035l.085.318,1.477.3,2.9-10.873-.3-.212A33.494,33.494,0,0,0,39.831,7,37.53,37.53,0,0,0,29.176,5.474h0A31.84,31.84,0,0,0,17.331,7.621a27.453,27.453,0,0,0-9.245,5.972,26.525,26.525,0,0,0-5.975,9.184A31.654,31.654,0,0,0,0,34.449,31.62,31.62,0,0,0,2.249,46.563,27.192,27.192,0,0,0,17.67,61.811a30.537,30.537,0,0,0,11.3,2.078h0a21.562,21.562,0,0,0,4.667-.449,21.014,21.014,0,0,0,3.673-1.167,27.678,27.678,0,0,0,3.173-1.6c.961-.568,2.008-1.136,3.113-1.689,1.089-.544,2.311-1.078,3.634-1.586a24.9,24.9,0,0,1,4.652-1.211l.439-.075v-17.5a9.56,9.56,0,0,1,1.02-4.811c.584-.906,1.865-1.365,3.806-1.365h.528V30.6l-.562.036c-1.365.089-2.95.177-4.844.268" transform="translate(0 -3.291)" fill="#9f826d"></path><path id="Path_8965" data-name="Path 8965" d="M191.88,39.461a22.662,22.662,0,0,0-7.585-5.117,25.748,25.748,0,0,0-9.989-1.858,26.223,26.223,0,0,0-9.948,1.822,22.38,22.38,0,0,0-7.623,5.048,22.681,22.681,0,0,0-4.866,7.549,25.145,25.145,0,0,0-1.714,9.315,27.625,27.625,0,0,0,1.676,9.689,23.667,23.667,0,0,0,4.791,7.863,22.337,22.337,0,0,0,7.552,5.3A24.729,24.729,0,0,0,174.1,81a26.246,26.246,0,0,0,10.056-1.858,22.845,22.845,0,0,0,7.69-5.117,22.074,22.074,0,0,0,4.869-7.733,27.353,27.353,0,0,0,1.676-9.655,26.591,26.591,0,0,0-1.678-9.519,22.5,22.5,0,0,0-4.832-7.658M165.747,75.232a15.436,15.436,0,0,1-2.6-4.113,30.258,30.258,0,0,1-1.646-4.9,35.847,35.847,0,0,1-.86-5.123c-.161-1.712-.242-3.327-.242-4.8h0c0-1.425.081-2.993.242-4.66a33.906,33.906,0,0,1,.858-4.982,27.706,27.706,0,0,1,1.643-4.724,15.878,15.878,0,0,1,2.53-3.949,11.035,11.035,0,0,1,3.627-2.694,12.719,12.719,0,0,1,9.867,0,11.445,11.445,0,0,1,3.665,2.7,15.175,15.175,0,0,1,2.56,3.976,28.776,28.776,0,0,1,1.645,4.762A34.122,34.122,0,0,1,187.9,51.7c.16,1.679.242,3.27.242,4.731a55.116,55.116,0,0,1-.553,7.362,27.018,27.018,0,0,1-2.086,7.426,15.959,15.959,0,0,1-4.218,5.672,10.341,10.341,0,0,1-6.906,2.244h0a10.862,10.862,0,0,1-4.95-1.057,12.376,12.376,0,0,1-3.678-2.842" transform="translate(-90.283 -19.533)" fill="#9f826d"></path><path id="Path_8966" data-name="Path 8966" d="M272.123,5.089l-.485-.039V3.415l.478-.046c.929-.088,1.963-.221,3.081-.4s2.247-.4,3.373-.661,2.251-.566,3.348-.9a23.936,23.936,0,0,0,2.947-1.08L285.612,0l0,78.258a24.849,24.849,0,0,0-2.244-1.709,26.832,26.832,0,0,0-7.217-3.391c-.1-.028-.2-.06-.3-.084l0-59.673c0-1.365-.01-2.6-.032-3.672a8.745,8.745,0,0,0-.376-2.553,2.728,2.728,0,0,0-1.037-1.442,4.79,4.79,0,0,0-2.286-.644" transform="translate(-163.327)" fill="#9f826d"></path><path id="Path_8967" data-name="Path 8967" d="M54.173,209.031a3.493,3.493,0,0,1-2.1-.57,3.819,3.819,0,0,1-1.244-1.593v0a9.611,9.611,0,0,1-.675-2.567,25.223,25.223,0,0,1-.208-3.355l0-58.748a20.924,20.924,0,0,0-2.2.689c-1.291.5-2.49,1.016-3.552,1.551-1.083.542-2.114,1.1-3.06,1.66a28.921,28.921,0,0,1-3.274,1.653,20.713,20.713,0,0,1-2.916.992v2l.514.049a6.087,6.087,0,0,1,2.287.577,2.658,2.658,0,0,1,1.157,1.185,5.623,5.623,0,0,1,.517,2.047c.071.865.105,1.9.105,3.067v16.869a21.85,21.85,0,0,0-1.3-3.008,20.178,20.178,0,0,0-4.308-5.627,18.161,18.161,0,0,0-5.61-3.468,17.512,17.512,0,0,0-6.317-1.182,23.021,23.021,0,0,0-9.384,1.8,18.367,18.367,0,0,0-6.788,5.132A22.607,22.607,0,0,0,1.7,176.142,35.943,35.943,0,0,0,.321,186.423,30.907,30.907,0,0,0,1.89,196.552a22.876,22.876,0,0,0,4.4,7.735,19.291,19.291,0,0,0,6.813,4.934,21.709,21.709,0,0,0,8.719,1.727h.007c.12,0,.239,0,.359,0a15.981,15.981,0,0,0,6.275-1.266,19.822,19.822,0,0,0,5.63-3.605,21.3,21.3,0,0,0,5.42-7.889v.461a17.367,17.367,0,0,0,.858,5.881,8.314,8.314,0,0,0,2.726,3.83,11.354,11.354,0,0,0,4.586,2,31.049,31.049,0,0,0,6.486.587h.563v-1.917Zm-14.868-17.6a18.088,18.088,0,0,1-1.537,6.022,20.133,20.133,0,0,1-2.575,4.66,18.108,18.108,0,0,1-3.676,3.711,16.849,16.849,0,0,1-4.534,2.423,14.33,14.33,0,0,1-5.142.792,8.127,8.127,0,0,1-5.191-1.668,12.263,12.263,0,0,1-3.486-4.688,27.09,27.09,0,0,1-1.959-7.217,64.112,64.112,0,0,1-.6-9.039c0-2.543.13-5.244.39-8.03a30.153,30.153,0,0,1,1.646-7.583,14.826,14.826,0,0,1,3.51-5.582,8.064,8.064,0,0,1,5.832-2.131,15.408,15.408,0,0,1,5.036.862,16.354,16.354,0,0,1,4.632,2.526,17.439,17.439,0,0,1,3.774,4.087,21.4,21.4,0,0,1,2.624,5.606,14.431,14.431,0,0,1,.654,2.41c.162.893.307,1.8.423,2.687.119.911.214,1.79.285,2.62s.105,1.593.105,2.244c0,1.456-.07,3.236-.211,5.29" transform="translate(-0.193 -85.497)" fill="#9f826d"></path><path id="Path_8968" data-name="Path 8968" d="M162.662,236.1h0a10.018,10.018,0,0,1-1.09-5.058l0-41.642-.8.358a25.916,25.916,0,0,1-3.149,1.154c-1.168.35-2.372.673-3.579.957s-2.422.522-3.606.707c-1.2.188-2.307.331-3.292.425l-.51.048V194.8l.518.042a5.091,5.091,0,0,1,2.443.688,2.914,2.914,0,0,1,1.109,1.539,9.466,9.466,0,0,1,.4,2.73c.024,1.147.036,2.466.036,3.922l0,26.883a11.991,11.991,0,0,1-1.034,5.418c-.581,1.021-1.944,1.539-4.052,1.539H145.5v1.88l.6-.038c1.508-.095,3.067-.167,4.63-.215,3.869-.114,7.491-.08,10.842,0,1.935.047,3.636.119,5.054.213l.6.04v-1.882h-.564c-2.027,0-3.372-.49-4-1.458" transform="translate(-87.482 -113.88)" fill="#9f826d"></path><path id="Path_8969" data-name="Path 8969" d="M163.222,166.58a5.365,5.365,0,0,0,4.176-1.834,6.2,6.2,0,0,0,1.609-4.237,6.6,6.6,0,0,0-1.525-4.33,5.675,5.675,0,0,0-8.405-.045,6.466,6.466,0,0,0-1.569,4.376,6.021,6.021,0,0,0,1.631,4.439,5.557,5.557,0,0,0,4.083,1.632" transform="translate(-94.705 -92.773)" fill="#9f826d"></path><path id="Path_8970" data-name="Path 8970" d="M213.33,211.741c1.392-.283,2.9-.558,4.487-.819,7.135-1.174,14.37-2.469,21.367-3.72l.6-.107q1.82-.325,3.288-.591l.9-.161c1.189-.214,2.071-.368,2.641-.465l.707-.121-.347-.809a24.794,24.794,0,0,0-3.369-5.869,21.976,21.976,0,0,0-5.066-4.738,24.326,24.326,0,0,0-6.556-3.075,27.127,27.127,0,0,0-7.851-1.1A26.2,26.2,0,0,0,213.2,192.3a22.68,22.68,0,0,0-12.388,13.635,27.976,27.976,0,0,0,.145,18.251,24.042,24.042,0,0,0,4.688,7.981,23.308,23.308,0,0,0,7.659,5.643,24.9,24.9,0,0,0,10.609,2.128,26.36,26.36,0,0,0,9.793-1.724,25.71,25.71,0,0,0,7.6-4.64,15.143,15.143,0,0,0,5.164-10.3,13.137,13.137,0,0,0-.539-4.665l-.146-.484-1.887.353.193.608a11.483,11.483,0,0,1,.227,6,13.25,13.25,0,0,1-4.258,7.066,23.676,23.676,0,0,1-6.95,4.225,25.186,25.186,0,0,1-8.977,1.64,10.733,10.733,0,0,1-7.078-2.471,17.443,17.443,0,0,1-4.5-6.239,29.982,29.982,0,0,1-2.246-8.423,48.087,48.087,0,0,1-.307-8.5c.963-.173,2.058-.384,3.329-.643m19.979-15.394a16.845,16.845,0,0,1,2.629,4.5,31.723,31.723,0,0,1,1.461,4.737c-2.341.406-4.924.865-7.687,1.367-3.11.563-6.2,1.1-9.2,1.61-1.907.365-3.867.726-5.822,1.074q-2.43.431-4.615.806a40.942,40.942,0,0,1,.97-5.95h0a22.239,22.239,0,0,1,2.441-6.174,13.979,13.979,0,0,1,4.191-4.506,11.153,11.153,0,0,1,6.374-1.726,11.8,11.8,0,0,1,5.359,1.153,12.193,12.193,0,0,1,3.9,3.111" transform="translate(-119.864 -114.343)" fill="#9f826d"></path></g></svg>